<svg xmlns="http://www.w3.org/2000/svg" viewBox="250 335 100 350">
    <defs>
        <style>
            .cls-1 {
                fill: #06352e;
            }

            .cls-2 {
                fill: #17846f;
            }
        </style>
    </defs>
    <title>tt19dark</title>
    <g id="Layer_2" data-name="Layer 2">
        <path d="M142.4,555.33h-14.7V535.7h14.7v3.59h-11v4.52H142v3.45H131.38v4.43h11Z" />
        <path
            d="M157,555.33v-7.4c0-1.82-1-3.48-2.83-3.48s-2.94,1.65-2.94,3.48v7.4h-3.42V541.47H151l.25,1.68a4,4,0,0,1,3.65-1.91,4.14,4.14,0,0,1,4.09,2.58,5,5,0,0,1,4.63-2.52c3.93,0,5.86,2.41,5.86,6.56v7.46h-3.42v-7.46c0-1.82-.76-3.37-2.61-3.37a3.15,3.15,0,0,0-3,3.42v7.4Z" />
        <path
            d="M179.19,535.72v7.66c.81-1.43,3.09-2.22,4.54-2.22,4,0,7,2.47,7,7.23,0,4.54-3.06,7.24-7.12,7.24a5,5,0,0,1-4.46-2.22l-.22,1.91h-3.2v-19.6Zm.22,12.67a4,4,0,1,0,7.94,0,3.81,3.81,0,0,0-3.93-4A3.94,3.94,0,0,0,179.41,548.4Z" />
        <path
            d="M199.27,541.5l.25,1.6a4.08,4.08,0,0,1,3.9-2,5.25,5.25,0,0,1,3.56,1.32l-1.54,3a3.42,3.42,0,0,0-2.47-.9,3.19,3.19,0,0,0-3.45,3.51v7.29H196.1V541.5Z" />
        <path
            d="M222,541.5h3.28v13.82h-3.22l-.17-2c-.79,1.63-2.94,2.41-4.49,2.44-4.09,0-7.12-2.5-7.12-7.35s3.17-7.26,7.21-7.23a5.07,5.07,0,0,1,4.4,2.24Zm-8.3,6.9a4,4,0,0,0,4.09,4.21c5.38,0,5.38-8.38,0-8.38A3.94,3.94,0,0,0,213.75,548.4Z" />
        <path
            d="M243.2,553.56a7.11,7.11,0,0,1-5.33,2.19c-4,0-7.35-2.41-7.35-7.32s3.34-7.32,7.35-7.32a6.56,6.56,0,0,1,5,2l-2.16,2.27a4.2,4.2,0,0,0-2.78-1.09,3.89,3.89,0,0,0-4,4.09,3.77,3.77,0,0,0,3.93,4,4.16,4.16,0,0,0,3-1.15Z" />
        <path d="M251.26,537.6a2,2,0,0,1-4,0A2,2,0,0,1,251.26,537.6Zm-3.73,3.84v13.88h3.42V541.44Z" />
        <path
            d="M267,555.33v-7.23c0-2.1-1.15-3.7-3.34-3.7a3.64,3.64,0,0,0-3.53,3.87v7.07h-3.39V541.47h3.06l.22,1.88a6.23,6.23,0,0,1,4.54-2.08c3.25,0,5.86,2.44,5.86,6.79v7.26Z" />
        <path
            d="M287,540.1l2.52,1.91L288,544a5.89,5.89,0,0,1,1.46,4.09,5.49,5.49,0,0,1-2.92,5.16,4.65,4.65,0,0,1,2.86,4.57c0,3.81-2.92,6.17-6.93,6.17s-7-2.44-7-6.17h3.39c0,1.79,1.65,3,3.62,3s3.51-1.07,3.51-3-1.79-2.78-3.51-2.78c-4.32,0-7-2.64-7-7a6.74,6.74,0,0,1,7-7,5.51,5.51,0,0,1,3.17.79Zm-8.16,8a3.61,3.61,0,1,0,7.21,0,3.61,3.61,0,1,0-7.21,0Z" />
        <path
            d="M321.89,552.61a10.1,10.1,0,0,1-7.15,2.94c-6.62,0-10.07-4.63-10.1-9.93s3.37-10.15,10.1-10.15a10.1,10.1,0,0,1,7.15,2.94l-1,.9a8.59,8.59,0,0,0-6.11-2.5c-5.72,0-8.67,4-8.64,8.75s3,8.58,8.64,8.58a8.78,8.78,0,0,0,6.14-2.5Z" />
        <path
            d="M327.06,548.43a7,7,0,1,1,14.08,0,7,7,0,1,1-14.08,0Zm12.73,0a5.7,5.7,0,1,0-11.38,0,5.69,5.69,0,1,0,11.38,0Z" />
        <path
            d="M348.46,541.47v2.47a5.51,5.51,0,0,1,4.94-2.72c3.7,0,6.25,2.27,6.25,6.11v8h-1.37v-8c0-3.14-1.93-4.82-4.94-4.8a4.81,4.81,0,0,0-4.85,5v7.71h-1.37V541.47Z" />
        <path
            d="M368.63,537.29v4.18h4.71v1.15h-4.71v8.44c0,1.88.39,3.2,2.55,3.2a5.14,5.14,0,0,0,2.13-.56l.48,1.12a6.06,6.06,0,0,1-2.61.7c-2.94,0-3.9-1.74-3.9-4.46v-8.44h-2.94v-1.15h2.94v-4Z" />
        <path
            d="M380.61,541.47l.06,2.47a4.87,4.87,0,0,1,4.6-2.61,5.39,5.39,0,0,1,3,.81l-.62,1.12a4.45,4.45,0,0,0-2.36-.64,4.6,4.6,0,0,0-4.57,4.63v8.08h-1.37V541.47Z" />
        <path
            d="M406.45,541.47v13.85h-1.37v-2.94a6.48,6.48,0,0,1-5.66,3.17,7.12,7.12,0,0,1,0-14.25,6.28,6.28,0,0,1,5.66,3.2v-3Zm-12.7,6.93a5.56,5.56,0,0,0,5.66,5.81c7.71,0,7.71-11.58,0-11.58A5.54,5.54,0,0,0,393.74,548.4Z" />
        <path
            d="M414.28,541.47l.06,2.47a4.87,4.87,0,0,1,4.6-2.61,5.4,5.4,0,0,1,3,.81l-.62,1.12a4.45,4.45,0,0,0-2.36-.64,4.6,4.6,0,0,0-4.57,4.63v8.08H413V541.47Z" />
        <path d="M428.61,537a1.11,1.11,0,0,1-2.22,0A1.11,1.11,0,0,1,428.61,537Zm-1.82,4.46v13.91h1.37V541.42Z" />
        <path
            d="M434.11,548.4a7,7,0,0,1,7-7.15c3.9,0,7.37,2.38,6.84,7.8H435.51a5.45,5.45,0,0,0,5.64,5.13,6.52,6.52,0,0,0,5-2.1l1,.79a7.61,7.61,0,0,1-6,2.66A6.79,6.79,0,0,1,434.11,548.4Zm12.65-.56c0-3.42-2.27-5.33-5.61-5.33a5.54,5.54,0,0,0-5.64,5.33Z" />
        <path
            d="M463.87,544a5.92,5.92,0,0,0-4.32-1.46c-2.16,0-4.23.79-4.18,2.55s2.47,2.22,4.21,2.52c2.47.42,5.86.84,5.72,4.07-.08,3.06-3.25,3.87-5.69,3.87s-4.85-.93-6.06-2.78l1-.9a6.15,6.15,0,0,0,5.08,2.36c1.68,0,4.23-.45,4.32-2.64.06-2-2.24-2.38-4.51-2.75-2.69-.45-5.36-1-5.38-3.73s2.69-3.9,5.5-3.87a7.26,7.26,0,0,1,5.16,1.85Z" />
        <path d="M137.71,479.58h-14.2v-2.69h31.42v2.69h-14.2v36.53h-3Z" />
        <path
            d="M151,502.25a13.94,13.94,0,0,1,14.08-14.31c7.8,0,14.76,4.77,13.69,15.6h-25a10.9,10.9,0,0,0,11.28,10.27c3.65,0,7.91-1.46,10-4.21l2,1.57c-2.69,3.54-7.52,5.33-12,5.33C157.29,516.5,151,511.06,151,502.25Zm25.31-1.12c-.06-6.84-4.55-10.66-11.22-10.66-5.72,0-10.66,3.87-11.28,10.66Z" />
        <path
            d="M208.63,512.24a14.18,14.18,0,0,1-10.1,4.15c-7.8,0-14.25-5.39-14.25-14.14s6.23-14.14,14.25-14.14a14.42,14.42,0,0,1,10.1,4.15l-1.8,1.74a11.75,11.75,0,0,0-8.31-3.31c-6.28,0-11.56,4.1-11.56,11.56s5.27,11.56,11.56,11.56a11.74,11.74,0,0,0,8.25-3.42Z" />
        <path
            d="M216.87,476.83v16.72c2.24-4,6.12-5.5,10-5.55,7.74,0,11.62,5,11.62,12.23v15.88h-2.69V500.23c0-5.72-2.69-9.6-8.92-9.6-5.84,0-9.88,4.49-9.88,10.27v15.21h-2.75V476.83Z" />
        <path d="M257.33,479.58h-14.2v-2.69h31.42v2.69h-14.2v36.53h-3Z" />
        <path
            d="M299.41,488.39v27.72h-2.75v-5.89a13,13,0,0,1-11.33,6.34,14.25,14.25,0,0,1,0-28.51,12.57,12.57,0,0,1,11.33,6.4v-6.06ZM274,502.25c0,7,5.05,11.62,11.34,11.62,15.43,0,15.43-23.18,0-23.18C279,490.69,274,495.29,274,502.25Z" />
        <path
            d="M312,480v8.36h9.43v2.3H312v16.89c0,3.76.79,6.4,5.11,6.4a10.28,10.28,0,0,0,4.26-1.12l1,2.25a12.13,12.13,0,0,1-5.22,1.4c-5.89,0-7.8-3.48-7.8-8.92V490.69h-5.89v-2.3h5.89v-8.08Z" />
        <path d="M325.16,488.39h3l10.1,24.52,10.1-24.52h3L339.8,516.11h-3Z" />
        <path
            d="M382.62,488.39v27.72h-2.75v-5.89a13,13,0,0,1-11.33,6.34,14.25,14.25,0,0,1,0-28.51,12.57,12.57,0,0,1,11.33,6.4v-6.06ZM357.2,502.25c0,7,5.05,11.62,11.34,11.62,15.43,0,15.43-23.18,0-23.18C362.25,490.69,357.2,495.29,357.2,502.25Z" />
        <path d="M410.27,489.4H403.2l4.38-12.62H413Z" />
        <path d="M414.87,509.82h5.89V483.56h-6.12v-6.73h13.47v33h5.44v6.28H414.87Z" />
        <path
            d="M463.19,503.93V498c-1.74,2.69-6,4.15-9.09,4.15-7.91,0-16.22-3.31-16.22-13.08,0-8.7,8.36-13,16.27-13s16.38,4.32,16.38,13.13v14.65c0,8.75-8.08,12.85-16.16,12.85-8.53,0-16.33-3.37-16.33-11.62h7.41c0,3.48,4.6,5.22,8.81,5.22,4.43.06,8.92-2.36,8.92-6.62Zm-18-14.81c0,4.32,3.93,6.62,8.87,6.62s9.15-2.24,9.09-6.62-4.21-6.4-9-6.4C449.49,482.72,445.23,484.8,445.23,489.12Z" />
        
      
        
        <rect x="121.13" y="525.9" width="356.1" height="3.46" />
       
    </g>
</svg>